<svg xmlns="http://www.w3.org/2000/svg" width="115" height="109.156" viewBox="0 0 115 109.156">
  <g id="_3d-design" data-name="3d-design" transform="translate(-0.001 -0.5)">
    <path id="Path_245" data-name="Path 245" d="M298.027,221.261,256.25,239.23V188.468L298.027,170.5Zm0,0" transform="translate(-198.693 -131.816)" fill="#ff6c6c"/>
    <path id="Path_246" data-name="Path 246" d="M112.027,90.5,153.8,108.469l-41.777,17.968L70.25,108.469Zm0,0" transform="translate(-54.47 -69.785)" fill="#6eba7b"/>
    <path id="Path_247" data-name="Path 247" d="M70.25,221.261V170.5l41.777,17.968V239.23Zm0,0" transform="translate(-54.47 -131.816)" fill="#a9def8"/>
    <path id="Path_248" data-name="Path 248" d="M344.246,346.5a2.246,2.246,0,1,0,2.246,2.246A2.246,2.246,0,0,0,344.246,346.5Zm0,0" transform="translate(-265.183 -268.281)" fill="#39519d"/>
    <path id="Path_249" data-name="Path 249" d="M250.492,162.746a2.246,2.246,0,1,0-2.246,2.246A2.247,2.247,0,0,0,250.492,162.746Zm0,0" transform="translate(-190.745 -124.062)" fill="#39519d"/>
    <path id="Path_250" data-name="Path 250" d="M152.246,350.988A2.246,2.246,0,1,0,150,348.742,2.247,2.247,0,0,0,152.246,350.988Zm0,0" transform="translate(-116.308 -268.281)" fill="#39519d"/>
    <path id="Path_251" data-name="Path 251" d="M113.667,93.38l-12.143-5.4v-49.3a2.257,2.257,0,0,0-1.379-2.073l-40.4-17.375V2.747a2.246,2.246,0,0,0-4.492,0v16.49l-40.4,17.375a2.26,2.26,0,0,0-1.379,2.073v49.3L1.335,93.38A2.246,2.246,0,1,0,3.16,97.486L15.739,91.9l40.875,17.58a2.282,2.282,0,0,0,1.775,0L99.264,91.9l12.579,5.589a2.246,2.246,0,0,0,1.824-4.105ZM55.255,24.127V29.7a2.246,2.246,0,0,0,4.492,0V24.127L93.593,38.684,57.5,54.208,21.409,38.684ZM29.782,83.2a2.248,2.248,0,0,0-2.965-1.141L17.97,85.989V42.094L55.255,58.131V104L21.331,89.412l7.31-3.248A2.248,2.248,0,0,0,29.782,83.2ZM59.747,104V58.131L97.031,42.094V85.989l-8.847-3.931a2.246,2.246,0,0,0-1.824,4.105l7.31,3.248Zm0,0" transform="translate(0)" fill="#39519d"/>
  </g>
</svg>
