<svg xmlns="http://www.w3.org/2000/svg" xmlns:xlink="http://www.w3.org/1999/xlink" width="25.171" height="24" viewBox="0 0 25.171 24">
  <defs>
    <clipPath id="clip-path">
      <rect id="Rectangle_70" data-name="Rectangle 70" width="25.17" height="24" transform="translate(49)" fill="#fff"/>
    </clipPath>
  </defs>
  <g id="facebook" transform="translate(-49)" clip-path="url(#clip-path)">
    <path id="Path_69" data-name="Path 69" d="M52.687,24H60.9V15.469H57.948V12.656H60.9V9.14a3.608,3.608,0,0,1,3.687-3.516h3.688V8.437H65.321a1.443,1.443,0,0,0-1.475,1.406v2.813h4.291l-.492,2.813h-3.8V24h6.637a3.608,3.608,0,0,0,3.687-3.516V3.516A3.608,3.608,0,0,0,70.483,0h-17.8A3.608,3.608,0,0,0,49,3.516V20.484A3.608,3.608,0,0,0,52.687,24ZM50.475,3.516a2.166,2.166,0,0,1,2.213-2.109h17.8A2.166,2.166,0,0,1,72.7,3.516V20.484a2.166,2.166,0,0,1-2.212,2.109H65.318V16.875h3.574l.983-5.625H65.321V9.843h4.424V4.219H64.579a5.052,5.052,0,0,0-5.165,4.922v2.106H56.472v5.625h2.949v5.719H52.687a2.166,2.166,0,0,1-2.213-2.107Z" fill="#c8c8c8"/>
  </g>
</svg>
