<svg xmlns="http://www.w3.org/2000/svg" width="115" height="94.597" viewBox="0 0 115 94.597">
  <g id="graphic-design" transform="translate(-8 -56)">
    <g id="Group_56" data-name="Group 56" transform="translate(9.855 57.855)">
      <g id="Group_54" data-name="Group 54" transform="translate(0 0)">
        <path id="Path_223" data-name="Path 223" d="M127.291,336v5.565a5.566,5.566,0,0,1-5.565,5.565H21.565A5.566,5.566,0,0,1,16,341.565V336Z" transform="translate(-16 -272.935)" fill="#00ffc2"/>
        <path id="Path_224" data-name="Path 224" d="M127.291,69.565v57.5H16v-57.5A5.566,5.566,0,0,1,21.565,64H121.726a5.566,5.566,0,0,1,5.565,5.565Z" transform="translate(-16 -64)" fill="#83d8f4"/>
        <path id="Path_225" data-name="Path 225" d="M225.968,395.129H200L203.71,384h18.548Z" transform="translate(-157.339 -309.806)" fill="#e0e0e2"/>
        <path id="Path_226" data-name="Path 226" d="M168,432h40.807v5.565H168Z" transform="translate(-132.758 -346.677)" fill="#00ffc2"/>
      </g>
      <g id="Group_55" data-name="Group 55" transform="translate(22.258 14.839)">
        <path id="Path_227" data-name="Path 227" d="M256,176.226V128h16.694v48.226" transform="translate(-222.613 -128)" fill="#e0e0e2"/>
        <path id="Path_228" data-name="Path 228" d="M184,192h11.129v33.155H184Z" transform="translate(-167.306 -177.161)" fill="#ff5023"/>
        <path id="Path_229" data-name="Path 229" d="M195.129,169.855v3.71H184v-3.71l.927-1.855H194.2Z" transform="translate(-167.306 -158.726)" fill="#d9ccbc"/>
        <path id="Path_230" data-name="Path 230" d="M197.274,137.274H188L192.637,128Z" transform="translate(-170.379 -128)" fill="#fff"/>
        <path id="Path_231" data-name="Path 231" d="M352,256h11.129v18.548H352Z" transform="translate(-296.355 -226.322)" fill="#ffda44"/>
        <path id="Path_232" data-name="Path 232" d="M363.129,203.129v3.71H352v-3.71L357.565,192Z" transform="translate(-296.355 -177.161)" fill="#e0e0e2"/>
        <path id="Path_233" data-name="Path 233" d="M123.129,137.274c0,4.1-2.491,7.419-5.565,7.419S112,141.372,112,137.274,117.565,128,117.565,128,123.129,133.177,123.129,137.274Z" transform="translate(-112 -128)" fill="#fff"/>
        <path id="Path_234" data-name="Path 234" d="M127.419,211.129H120L121.855,200h3.71Z" transform="translate(-118.145 -183.306)" fill="#e0e0e2"/>
        <path id="Path_235" data-name="Path 235" d="M120.85,268.4,120,248h7.419l-.85,20.4" transform="translate(-118.145 -220.177)" fill="red"/>
      </g>
    </g>
    <g id="Group_57" data-name="Group 57" transform="translate(8 56)">
      <path id="Path_236" data-name="Path 236" d="M115.581,56H15.419A7.429,7.429,0,0,0,8,63.419v63.065a7.429,7.429,0,0,0,7.419,7.419H53.652l-2.474,7.419H45.1a1.855,1.855,0,0,0-1.855,1.855v3.71H26.548a1.855,1.855,0,0,0,0,3.71h81.613a1.855,1.855,0,0,0,0-3.71h-20.4v-3.71a1.855,1.855,0,0,0-1.855-1.855H79.822L77.348,133.9h38.233A7.429,7.429,0,0,0,123,126.484V63.419A7.429,7.429,0,0,0,115.581,56ZM84.049,145.033v1.855h-37.1v-1.855Zm-28.959-3.71,2.474-7.419H73.437l2.474,7.419Zm64.2-14.839a3.715,3.715,0,0,1-3.71,3.71H15.419a3.715,3.715,0,0,1-3.71-3.71v-3.71H119.291ZM39.454,102.371l-.7,16.694H36.6l-.7-16.694Zm-3.3-3.71,1.238-7.419h.566L39.2,98.661Zm1.521-11.129c-2.01,0-3.71-2.548-3.71-5.565,0-1.9,1.943-4.67,3.705-6.619,1.588,1.762,3.714,4.579,3.714,6.619C41.387,84.984,39.688,87.532,37.678,87.532Zm20.185-3.71.218.438v1.417H50.661V84.261l.218-.438Zm-5.129-3.71,1.637-3.271,1.637,3.271Zm5.347,9.274v29.446a1.915,1.915,0,0,0,.016.232H50.645a1.914,1.914,0,0,0,.016-.232V89.387Zm16.694-7.419h5.565v3.71H78.484a1.855,1.855,0,1,0,0,3.71h1.855V93.1H74.774a1.855,1.855,0,0,0,0,3.71h5.565v3.71H78.484a1.855,1.855,0,1,0,0,3.71h1.855v3.71H74.774a1.855,1.855,0,1,0,0,3.71h5.565v7.419H67.355V74.548H80.339v3.71H74.774a1.855,1.855,0,0,0,0,3.71Zm22.258,22.258v14.607a1.913,1.913,0,0,0,.016.232H89.6a1.914,1.914,0,0,0,.016-.232V104.226Zm-7.419-3.71V99.1l3.71-7.419,3.71,7.419v1.417Zm29.678,18.548H100.726a1.914,1.914,0,0,0,.016-.232V98.661a1.874,1.874,0,0,0-.195-.83L94.983,86.7a1.857,1.857,0,0,0-3.32,0L86.1,97.831a1.874,1.874,0,0,0-.195.83v20.171a1.914,1.914,0,0,0,.016.232H84.049V72.694a1.855,1.855,0,0,0-1.855-1.855H65.5a1.855,1.855,0,0,0-1.855,1.855v46.371H61.774a1.915,1.915,0,0,0,.016-.232V83.823a1.874,1.874,0,0,0-.195-.83L56.031,71.864a1.857,1.857,0,0,0-3.32,0L47.147,82.993a1.874,1.874,0,0,0-.195.83v35.01a1.914,1.914,0,0,0,.016.232h-4.5l.77-18.472c0-.042,0-.083,0-.128v-.056a1.857,1.857,0,0,0-.023-.195v0L41.5,89.914a9.932,9.932,0,0,0,3.6-7.946c0-4.767-5.525-10.046-6.156-10.633a1.859,1.859,0,0,0-2.527,0c-.631.587-6.156,5.866-6.156,10.633a9.932,9.932,0,0,0,3.6,7.946l-1.716,10.3v0a1.857,1.857,0,0,0-.023.195v.056c0,.044,0,.086,0,.128l.77,18.472H11.71V63.419a3.715,3.715,0,0,1,3.71-3.71H115.581a3.715,3.715,0,0,1,3.71,3.71Z" transform="translate(-8 -56)" fill="#39519d"/>
      <path id="Path_237" data-name="Path 237" d="M52.984,352H41.855a1.855,1.855,0,1,0,0,3.71H52.984a1.855,1.855,0,1,0,0-3.71Z" transform="translate(-32.581 -283.371)" fill="#39519d"/>
      <path id="Path_238" data-name="Path 238" d="M115.71,352h-1.855a1.855,1.855,0,1,0,0,3.71h1.855a1.855,1.855,0,1,0,0-3.71Z" transform="translate(-87.887 -283.371)" fill="#39519d"/>
      <path id="Path_239" data-name="Path 239" d="M201.855,208A1.855,1.855,0,0,0,200,209.855v20.4a1.855,1.855,0,0,0,3.71,0v-20.4A1.855,1.855,0,0,0,201.855,208Z" transform="translate(-155.484 -172.758)" fill="#39519d"/>
      <path id="Path_240" data-name="Path 240" d="M369.855,272A1.855,1.855,0,0,0,368,273.855v5.565a1.855,1.855,0,1,0,3.71,0v-5.565A1.855,1.855,0,0,0,369.855,272Z" transform="translate(-284.532 -221.919)" fill="#39519d"/>
      <path id="Path_241" data-name="Path 241" d="M41.855,91.71H56.694a1.855,1.855,0,0,0,0-3.71H41.855a1.855,1.855,0,1,0,0,3.71Z" transform="translate(-32.581 -80.581)" fill="#39519d"/>
      <path id="Path_242" data-name="Path 242" d="M41.855,115.71h3.71a1.855,1.855,0,0,0,0-3.71h-3.71a1.855,1.855,0,1,0,0,3.71Z" transform="translate(-32.581 -99.016)" fill="#39519d"/>
      <path id="Path_243" data-name="Path 243" d="M425.855,299.71h7.419a1.855,1.855,0,0,0,0-3.71h-7.419a1.855,1.855,0,1,0,0,3.71Z" transform="translate(-327.548 -240.355)" fill="#39519d"/>
      <path id="Path_244" data-name="Path 244" d="M449.855,275.71h1.855a1.855,1.855,0,0,0,0-3.71h-1.855a1.855,1.855,0,0,0,0,3.71Z" transform="translate(-345.983 -221.919)" fill="#39519d"/>
    </g>
  </g>
</svg>
