<svg id="insta" xmlns="http://www.w3.org/2000/svg" width="24" height="24" viewBox="0 0 24 24">
  <path id="Path_66" data-name="Path 66" d="M16.5,0h-9A7.5,7.5,0,0,0,0,7.5v9A7.5,7.5,0,0,0,7.5,24h9A7.5,7.5,0,0,0,24,16.5v-9A7.5,7.5,0,0,0,16.5,0Zm5.25,16.5a5.256,5.256,0,0,1-5.25,5.25h-9A5.256,5.256,0,0,1,2.25,16.5v-9A5.256,5.256,0,0,1,7.5,2.25h9A5.256,5.256,0,0,1,21.75,7.5Z" fill="#c8c8c8"/>
  <path id="Path_67" data-name="Path 67" d="M12,6a6,6,0,1,0,4.243,1.757A6,6,0,0,0,12,6Zm0,9.75a3.755,3.755,0,1,1,2.65-1.1A3.75,3.75,0,0,1,12,15.75Z" fill="#c8c8c8"/>
  <path id="Path_68" data-name="Path 68" d="M18.45,6.35a.8.8,0,1,0-.8-.8A.8.8,0,0,0,18.45,6.35Z" fill="#c8c8c8"/>
</svg>
