<svg xmlns="http://www.w3.org/2000/svg" width="24.958" height="24.559" viewBox="0 0 24.958 24.559">
  <g id="linkedin" transform="translate(0.5 0.5)">
    <g id="Group_32" data-name="Group 32" transform="translate(0 0)">
      <g id="Group_31" data-name="Group 31" transform="translate(0 0)">
        <path id="Path_93" data-name="Path 93" d="M2.234,4.267A3.2,3.2,0,0,0-1,7.461,3.2,3.2,0,0,0-.042,9.737a3.045,3.045,0,0,0,2.236.918h.08a3.027,3.027,0,0,0,2.156-.918,3.2,3.2,0,0,0,.958-2.276A2.984,2.984,0,0,0,4.47,5.225,3.022,3.022,0,0,0,2.234,4.267ZM3.871,9.178a2.2,2.2,0,0,1-1.677.679A2.424,2.424,0,0,1,.517,9.178,2.322,2.322,0,0,1-.2,7.461a2.386,2.386,0,0,1,2.436-2.4,2.33,2.33,0,0,1,1.637.679A2.387,2.387,0,0,1,4.59,7.461,2.322,2.322,0,0,1,3.871,9.178Z" transform="translate(1 -4.267)" fill="#c8c8c8" stroke="#c8c8c8" stroke-width="1"/>
        <path id="Path_94" data-name="Path 94" d="M11.925,157.867H8.691a1.168,1.168,0,0,0-1.158,1.2V173.04a1.228,1.228,0,0,0,1.2,1.2h3.194a1.222,1.222,0,0,0,1.2-1.158V159.065A1.228,1.228,0,0,0,11.925,157.867Zm.4,15.213a.394.394,0,0,1-.4.359H8.731a.429.429,0,0,1-.4-.4V159.065a.394.394,0,0,1,.359-.4h3.234a.429.429,0,0,1,.4.4Z" transform="translate(-7.134 -150.68)" fill="#c8c8c8" stroke="#c8c8c8" stroke-width="1"/>
        <path id="Path_95" data-name="Path 95" d="M179.235,149.333H178.4a5.394,5.394,0,0,0-3.993,1.757v-.559a.859.859,0,0,0-.8-.8h-3.993a.82.82,0,0,0-.8.759v14.894a.785.785,0,0,0,.8.719H174a.785.785,0,0,0,.8-.719V156.76A2.254,2.254,0,0,1,177,154.4a2.354,2.354,0,0,1,1.677.679,2.1,2.1,0,0,1,.559,1.637V165.3a.859.859,0,0,0,.8.8h3.993a.859.859,0,0,0,.8-.8V155A5.549,5.549,0,0,0,179.235,149.333Zm4.792,15.932-.04.04h-3.913l-.04-8.585a2.941,2.941,0,0,0-.759-2.2,3.14,3.14,0,0,0-2.236-.918,3.079,3.079,0,0,0-2.995,3.154V165.3h-4.392V150.531H173.6l.04.04v2.516l1.078-1.078.04-.04a4.556,4.556,0,0,1,3.674-1.837h.839A4.765,4.765,0,0,1,184.026,155Z" transform="translate(-160.867 -142.545)" fill="#c8c8c8" stroke="#c8c8c8" stroke-width="1"/>
      </g>
    </g>
  </g>
</svg>
