<svg id="logo_header" data-name="logo header" xmlns="http://www.w3.org/2000/svg" width="169.306" height="44.202" viewBox="0 0 169.306 44.202">
  <path id="Path_7" data-name="Path 7" d="M28.383,66.994a11.218,11.218,0,0,0-8.388,3.561,11.218,11.218,0,0,0-8.378-3.561,11.314,11.314,0,0,0-5.033,1.119V66.994H0V95.125H6.586v-16.5a5.046,5.046,0,1,1,10.092,0v16.5h6.646v-16.5a4.9,4.9,0,0,1,1.5-3.595,5.062,5.062,0,0,1,8.628,3.595v16.5H40v-16.5A11.631,11.631,0,0,0,28.383,66.994Z" transform="translate(0 -50.938)" fill="#1c1c1c"/>
  <path id="Path_8" data-name="Path 8" d="M205.6,70.88a14.379,14.379,0,0,0-4.553-2.9A13.8,13.8,0,0,0,195.9,67h-.3a14.006,14.006,0,0,0-5.3,1.215,13.514,13.514,0,0,0-4.58,3.2,14.08,14.08,0,0,0-3.835,9.7v.451a14.389,14.389,0,0,0,4.429,9.7,13.929,13.929,0,0,0,4.553,2.9,14.162,14.162,0,0,0,5.148.959h.419a13.37,13.37,0,0,0,5.179-1.229,13.181,13.181,0,0,0,4.553-3.2,14.672,14.672,0,0,0,2.876-4.553l-6.231-2.4a9.4,9.4,0,0,1-1.5,2.365,7.669,7.669,0,0,1-2.4,1.678,7.549,7.549,0,0,1-2.694.628h-.3a7.314,7.314,0,0,1-2.665-.508,7.693,7.693,0,0,1-1.975-1.167l18.861-8.295A22.408,22.408,0,0,0,205.6,70.88Zm-17.016,9.759a7.215,7.215,0,0,1,.51-2.274A9.955,9.955,0,0,1,190.563,76a7.753,7.753,0,0,1,2.425-1.678,7.669,7.669,0,0,1,2.722-.628h.12a8.1,8.1,0,0,1,2.816.508,8.434,8.434,0,0,1,1.946,1.17Z" transform="translate(-138.298 -50.943)" fill="#1c1c1c"/>
  <path id="Path_9" data-name="Path 9" d="M321.427,69.054V67H314.81V95.131h6.617V80.61a4.749,4.749,0,0,1,.568-2.576,6.471,6.471,0,0,1,1.527-2.274,7.554,7.554,0,0,1,2.305-1.587,7.173,7.173,0,0,1,2.814-.568V67.017a13.8,13.8,0,0,0-5.4,1.078A12.28,12.28,0,0,0,321.427,69.054Z" transform="translate(-239.363 -50.943)" fill="#1c1c1c"/>
  <path id="Path_10" data-name="Path 10" d="M395.84,66.995a14.207,14.207,0,0,0-14.07,14.07,14.156,14.156,0,0,0,14.07,14.073,13.732,13.732,0,0,0,7.484-2.1v2.1h6.617V81.053a14.136,14.136,0,0,0-14.1-14.058Zm5.239,19.28a7.378,7.378,0,1,1-.013-10.433,7.378,7.378,0,0,1,.013,10.433Z" transform="translate(-290.276 -50.938)" fill="#1c1c1c"/>
  <path id="Path_11" data-name="Path 11" d="M537.873,16.045h-9.342l-7.6,7.633V0H514.31V44.188h6.617V30.415l11.348,13.773h8.592L526.794,27.122Z" transform="translate(-391.052)" fill="#1c1c1c"/>
  <rect id="Rectangle_3" data-name="Rectangle 3" width="6.617" height="28.143" transform="translate(152.06 16.045)" fill="#1c1c1c"/>
  <path id="Path_12" data-name="Path 12" d="M678.812,150.875a3.9,3.9,0,0,0-2.9-1.227,4.033,4.033,0,0,0-2.965,1.227,3.933,3.933,0,0,0-1.227,2.931,4,4,0,0,0,1.227,2.933,4.036,4.036,0,0,0,2.965,1.229,3.9,3.9,0,0,0,2.9-1.229,4,4,0,0,0,1.229-2.933,3.935,3.935,0,0,0-1.229-2.931Z" transform="translate(-510.735 -113.784)" fill="#1c1c1c"/>
</svg>
