<svg xmlns="http://www.w3.org/2000/svg" width="114.62" height="98.427" viewBox="0 0 114.62 98.427">
  <g id="magnet_1_" data-name="magnet (1)" transform="translate(0 0)">
    <g id="Group_38" data-name="Group 38" transform="translate(1.679 1.679)">
      <ellipse id="Ellipse_5" data-name="Ellipse 5" cx="7.052" cy="7.052" rx="7.052" ry="7.052" transform="translate(92.905)" fill="#ffc682"/>
      <path id="Path_143" data-name="Path 143" d="M407.8,148.192h14.285a4.308,4.308,0,0,0,4.219-4.179v-.9A11.267,11.267,0,0,0,415,132h-.106a11.14,11.14,0,0,0-11.14,11.14v1A4.051,4.051,0,0,0,407.8,148.192Z" transform="translate(-315.043 -112.223)" fill="#50758d"/>
      <ellipse id="Ellipse_6" data-name="Ellipse 6" cx="7.052" cy="7.052" rx="7.052" ry="7.052" transform="translate(92.905 59.101)" fill="#ffc682"/>
      <path id="Path_144" data-name="Path 144" d="M407.8,412.192h14.285a4.308,4.308,0,0,0,4.219-4.179v-.9A11.267,11.267,0,0,0,415,396h-.106a11.14,11.14,0,0,0-11.14,11.14v1A4.051,4.051,0,0,0,407.8,412.192Z" transform="translate(-315.043 -317.123)" fill="#50758d"/>
      <path id="Path_145" data-name="Path 145" d="M234.395,76.239V94.148a2.239,2.239,0,0,1-2.239,2.239H220.739l-2.239-11L220.739,74h11.417A2.239,2.239,0,0,1,234.395,76.239Z" transform="translate(-171.264 -67.209)" fill="#f5f5f5"/>
      <path id="Path_146" data-name="Path 146" d="M234.395,340.239v17.909a2.239,2.239,0,0,1-2.239,2.239H220.739L218.5,349.193,220.739,338h11.417A2.239,2.239,0,0,1,234.395,340.239Z" transform="translate(-171.264 -272.108)" fill="#f5f5f5"/>
      <path id="Path_147" data-name="Path 147" d="M56.974,266.6v22.387H48.6c-22.4,0-41.084-18.326-41.1-40.724v-.02L18.667,246l11.22,2.239A18.359,18.359,0,0,0,48.244,266.6Z" transform="translate(-7.5 -200.704)" fill="#fd646f"/>
      <path id="Path_148" data-name="Path 148" d="M56.974,74V96.387H48.244q-.215,0-.43.007a18.354,18.354,0,0,0-17.927,18.35H7.5A40.788,40.788,0,0,1,48.244,74Z" transform="translate(-7.5 -67.209)" fill="#2edffc"/>
      <g id="Group_37" data-name="Group 37" transform="translate(67.943 5.112)">
        <path id="Path_149" data-name="Path 149" d="M324.768,433.858H312.679a1.679,1.679,0,1,1,0-3.358h12.089a1.679,1.679,0,1,1,0,3.358Z" transform="translate(-311 -349.013)" fill="#fad207"/>
        <path id="Path_150" data-name="Path 150" d="M324.081,333.858h-9.4a1.679,1.679,0,1,1,0-3.358h9.4a1.679,1.679,0,1,1,0,3.358Z" transform="translate(-312.552 -271.399)" fill="#fad207"/>
        <path id="Path_151" data-name="Path 151" d="M367.231,383.858h-7.052a1.679,1.679,0,1,1,0-3.358h7.052a1.679,1.679,0,1,1,0,3.358Z" transform="translate(-347.866 -310.206)" fill="#fad207"/>
        <path id="Path_152" data-name="Path 152" d="M320.806,383.858h-2.127a1.679,1.679,0,0,1,0-3.358h2.127a1.679,1.679,0,0,1,0,3.358Z" transform="translate(-315.657 -310.206)" fill="#fad207"/>
        <path id="Path_153" data-name="Path 153" d="M324.768,69.858H312.679a1.679,1.679,0,1,1,0-3.358h12.089a1.679,1.679,0,0,1,0,3.358Z" transform="translate(-311 -66.5)" fill="#fad207"/>
        <path id="Path_154" data-name="Path 154" d="M324.081,169.858h-9.4a1.679,1.679,0,1,1,0-3.358h9.4a1.679,1.679,0,1,1,0,3.358Z" transform="translate(-312.552 -144.113)" fill="#fad207"/>
        <path id="Path_155" data-name="Path 155" d="M374.992,119.858h-4.813a1.679,1.679,0,0,1,0-3.358h4.813a1.679,1.679,0,1,1,0,3.358Z" transform="translate(-355.628 -105.307)" fill="#fad207"/>
        <path id="Path_156" data-name="Path 156" d="M323.044,119.858h-4.365a1.679,1.679,0,0,1,0-3.358h4.365a1.679,1.679,0,1,1,0,3.358Z" transform="translate(-315.657 -105.307)" fill="#fad207"/>
      </g>
      <path id="Path_157" data-name="Path 157" d="M234.395,149v3.358a2.239,2.239,0,0,1-2.239,2.239H220.739l-2.239-2.8,2.239-2.8Z" transform="translate(-171.264 -125.419)" fill="#e6e6e6"/>
      <path id="Path_158" data-name="Path 158" d="M134.371,149v5.6H125.64q-.215,0-.43.007a18.354,18.354,0,0,0-17.927,18.35c-.141-.911,0-4.647,0-5.6,0-10.139,10.681-18.357,20.82-18.357Z" transform="translate(-84.896 -125.419)" fill="#27bdf3"/>
      <path id="Path_159" data-name="Path 159" d="M234.395,413v3.358a2.239,2.239,0,0,1-2.239,2.239H220.739l-2.239-2.8,2.239-2.8Z" transform="translate(-171.264 -330.318)" fill="#e6e6e6"/>
      <path id="Path_160" data-name="Path 160" d="M56.982,292.521v5.6c-7.577.094-16.194.266-23.246-2.808C18.519,289.513,7.5,274.136,7.51,257.77a41.3,41.3,0,0,0,40.645,34.751Z" transform="translate(-7.508 -209.839)" fill="#fc4755"/>
      <path id="Path_161" data-name="Path 161" d="M412.279,148.192H407.8a4.05,4.05,0,0,1-4.052-4.05v-1A11.14,11.14,0,0,1,414.89,132H415a11.222,11.222,0,0,1,2.189.215,11.139,11.139,0,0,0-8.959,10.925v1A4.05,4.05,0,0,0,412.279,148.192Z" transform="translate(-315.043 -112.225)" fill="#2b597f"/>
      <path id="Path_162" data-name="Path 162" d="M412.279,412.192H407.8a4.05,4.05,0,0,1-4.052-4.05v-1A11.14,11.14,0,0,1,414.89,396H415a11.222,11.222,0,0,1,2.189.215,11.139,11.139,0,0,0-8.959,10.925v1A4.05,4.05,0,0,0,412.279,412.192Z" transform="translate(-315.043 -317.124)" fill="#2b597f"/>
      <path id="Path_163" data-name="Path 163" d="M433.725,56.491a7.052,7.052,0,1,1-4.764-12.711,7.051,7.051,0,0,0,4.173,12.736C433.333,56.516,433.53,56.507,433.725,56.491Z" transform="translate(-329.595 -43.754)" fill="#ffac5c"/>
      <path id="Path_164" data-name="Path 164" d="M433.725,320.487a7.052,7.052,0,1,1-4.764-12.711,7.051,7.051,0,0,0,4.173,12.736C433.333,320.512,433.53,320.5,433.725,320.487Z" transform="translate(-329.595 -248.651)" fill="#ffac5c"/>
      <path id="Path_165" data-name="Path 165" d="M324.768,433.858H312.679a1.679,1.679,0,1,1,0-3.358h12.089a1.679,1.679,0,1,1,0,3.358Z" transform="translate(-243.057 -343.901)" fill="#fad207"/>
      <path id="Path_166" data-name="Path 166" d="M324.081,333.858h-9.4a1.679,1.679,0,1,1,0-3.358h9.4a1.679,1.679,0,1,1,0,3.358Z" transform="translate(-244.609 -266.287)" fill="#fad207"/>
      <path id="Path_167" data-name="Path 167" d="M367.231,383.858h-7.052a1.679,1.679,0,1,1,0-3.358h7.052a1.679,1.679,0,1,1,0,3.358Z" transform="translate(-279.923 -305.094)" fill="#fad207"/>
      <path id="Path_168" data-name="Path 168" d="M320.806,383.858h-2.127a1.679,1.679,0,0,1,0-3.358h2.127a1.679,1.679,0,0,1,0,3.358Z" transform="translate(-247.713 -305.094)" fill="#fad207"/>
      <path id="Path_169" data-name="Path 169" d="M324.768,69.858H312.679a1.679,1.679,0,1,1,0-3.358h12.089a1.679,1.679,0,0,1,0,3.358Z" transform="translate(-243.057 -61.388)" fill="#fad207"/>
      <path id="Path_170" data-name="Path 170" d="M324.081,169.858h-9.4a1.679,1.679,0,1,1,0-3.358h9.4a1.679,1.679,0,1,1,0,3.358Z" transform="translate(-244.609 -139.002)" fill="#fad207"/>
      <path id="Path_171" data-name="Path 171" d="M374.992,119.858h-4.813a1.679,1.679,0,0,1,0-3.358h4.813a1.679,1.679,0,1,1,0,3.358Z" transform="translate(-287.684 -100.195)" fill="#fad207"/>
      <path id="Path_172" data-name="Path 172" d="M323.044,119.858h-4.365a1.679,1.679,0,0,1,0-3.358h4.365a1.679,1.679,0,1,1,0,3.358Z" transform="translate(-247.713 -100.195)" fill="#fad207"/>
    </g>
    <g id="Group_39" data-name="Group 39" transform="translate(0 0)">
      <path id="Path_173" data-name="Path 173" d="M423.731,53.628A8.731,8.731,0,1,0,415,44.9,8.741,8.741,0,0,0,423.731,53.628Zm0-14.1a5.373,5.373,0,1,1-5.373,5.373A5.379,5.379,0,0,1,423.731,39.524Z" transform="translate(-322.095 -36.166)" fill="#39519d"/>
      <path id="Path_174" data-name="Path 174" d="M409.175,124.5h-.106a12.834,12.834,0,0,0-12.819,12.819v1a5.737,5.737,0,0,0,5.73,5.73h14.285a5.957,5.957,0,0,0,5.9-5.858v-.9A12.908,12.908,0,0,0,409.175,124.5Zm9.629,13.693a2.62,2.62,0,0,1-2.54,2.5H401.979a2.375,2.375,0,0,1-2.372-2.372v-1a9.472,9.472,0,0,1,9.461-9.461h.106a9.547,9.547,0,0,1,9.629,9.44Z" transform="translate(-307.542 -104.724)" fill="#39519d"/>
      <path id="Path_175" data-name="Path 175" d="M432.462,308.9a8.731,8.731,0,1,0-8.731,8.731A8.741,8.741,0,0,0,432.462,308.9Zm-14.1,0a5.373,5.373,0,1,1,5.373,5.373A5.379,5.379,0,0,1,418.358,308.9Z" transform="translate(-322.095 -241.065)" fill="#39519d"/>
      <path id="Path_176" data-name="Path 176" d="M409.175,388.5h-.106a12.834,12.834,0,0,0-12.819,12.819v1a5.737,5.737,0,0,0,5.73,5.73h14.285a5.957,5.957,0,0,0,5.9-5.858v-.9A12.908,12.908,0,0,0,409.175,388.5Zm9.629,13.693a2.62,2.62,0,0,1-2.54,2.5H401.979a2.375,2.375,0,0,1-2.372-2.372v-1a9.472,9.472,0,0,1,9.461-9.461h.106a9.547,9.547,0,0,1,9.629,9.44Z" transform="translate(-307.542 -309.623)" fill="#39519d"/>
      <path id="Path_177" data-name="Path 177" d="M64.809,66.5H42.423A42.468,42.468,0,0,0,0,108.916s0,0,0,.006,0,0,0,0,0,.011,0,.017a42.238,42.238,0,0,0,15.152,32.239,1.679,1.679,0,1,0,2.167-2.565A38.941,38.941,0,0,1,3.4,110.6H22.458a20.062,20.062,0,0,0,19.965,18.357h7.052v19.029h-6.7a39.348,39.348,0,0,1-19.231-5.048,1.679,1.679,0,0,0-1.645,2.927,42.711,42.711,0,0,0,20.876,5.479H64.809a1.679,1.679,0,0,0,1.679-1.679V127.28a1.679,1.679,0,0,0-1.679-1.679H42.423A16.678,16.678,0,0,1,30.09,97.695a1.679,1.679,0,0,0-2.482-2.261,19.975,19.975,0,0,0-5.148,11.81H3.4A39.112,39.112,0,0,1,42.423,69.858h7.052V88.887H42.423a19.91,19.91,0,0,0-7.8,1.575,1.679,1.679,0,0,0,1.308,3.092,16.573,16.573,0,0,1,6.491-1.31H64.809a1.679,1.679,0,0,0,1.679-1.679V68.179A1.679,1.679,0,0,0,64.809,66.5ZM63.13,147.987h-10.3V128.959h10.3Zm0-59.1h-10.3V69.858h10.3Z" transform="translate(0 -59.709)" fill="#39519d"/>
      <path id="Path_178" data-name="Path 178" d="M312.679,69.858h12.089a1.679,1.679,0,0,0,0-3.358H312.679a1.679,1.679,0,1,0,0,3.358Z" transform="translate(-241.378 -59.709)" fill="#39519d"/>
      <path id="Path_179" data-name="Path 179" d="M313,168.179a1.679,1.679,0,0,0,1.679,1.679h9.4a1.679,1.679,0,1,0,0-3.358h-9.4A1.679,1.679,0,0,0,313,168.179Z" transform="translate(-242.93 -137.323)" fill="#39519d"/>
      <path id="Path_180" data-name="Path 180" d="M368.5,118.179a1.679,1.679,0,0,0,1.679,1.679h4.813a1.679,1.679,0,1,0,0-3.358h-4.813A1.679,1.679,0,0,0,368.5,118.179Z" transform="translate(-286.005 -98.516)" fill="#39519d"/>
      <path id="Path_181" data-name="Path 181" d="M323.044,119.858a1.679,1.679,0,1,0,0-3.358h-4.365a1.679,1.679,0,0,0,0,3.358Z" transform="translate(-246.034 -98.516)" fill="#39519d"/>
      <path id="Path_182" data-name="Path 182" d="M324.768,430.5H312.679a1.679,1.679,0,1,0,0,3.358h12.089a1.679,1.679,0,1,0,0-3.358Z" transform="translate(-241.378 -342.222)" fill="#39519d"/>
      <path id="Path_183" data-name="Path 183" d="M325.76,332.179a1.679,1.679,0,0,0-1.679-1.679h-9.4a1.679,1.679,0,1,0,0,3.358h9.4A1.679,1.679,0,0,0,325.76,332.179Z" transform="translate(-242.93 -264.608)" fill="#39519d"/>
      <path id="Path_184" data-name="Path 184" d="M360.179,383.858h7.052a1.679,1.679,0,1,0,0-3.358h-7.052a1.679,1.679,0,1,0,0,3.358Z" transform="translate(-278.244 -303.415)" fill="#39519d"/>
      <path id="Path_185" data-name="Path 185" d="M318.679,380.5a1.679,1.679,0,0,0,0,3.358h2.127a1.679,1.679,0,0,0,0-3.358Z" transform="translate(-246.034 -303.415)" fill="#39519d"/>
    </g>
  </g>
</svg>
