<svg xmlns="http://www.w3.org/2000/svg" xmlns:xlink="http://www.w3.org/1999/xlink" width="28.367" height="24" viewBox="0 0 28.367 24">
  <defs>
    <clipPath id="clip-path">
      <rect id="Rectangle_71" data-name="Rectangle 71" width="28.367" height="24" transform="translate(99)" fill="#fff"/>
    </clipPath>
  </defs>
  <g id="Telegram" transform="translate(-99)" clip-path="url(#clip-path)">
    <path id="Path_70" data-name="Path 70" d="M126.929.657A1.844,1.844,0,0,0,125.467,0a2.868,2.868,0,0,0-1.02.2L100.435,9.369c-1.274.486-1.446,1.216-1.435,1.607s.224,1.111,1.523,1.524l.024.007,4.98,1.424,2.694,7.7a2.325,2.325,0,0,0,2.151,1.7,2.545,2.545,0,0,0,1.722-.733l3.081-2.837,4.468,3.6.043.034.012.009a2.58,2.58,0,0,0,1.568.587,2.2,2.2,0,0,0,2.1-1.951L127.3,2.616a2.321,2.321,0,0,0-.37-1.959ZM107.194,13.662l9.61-4.909-5.983,6.358a.828.828,0,0,0-.2.37l-1.154,4.674Zm3.775,7.719c-.04.037-.084.069-.12.1l1.071-4.335,1.947,1.568Zm14.7-19.09-3.938,19.427c-.038.186-.159.618-.47.618a.968.968,0,0,1-.545-.236l-5.063-4.077-3.017-2.43L121.3,6.4a.831.831,0,0,0-.983-1.31l-14.231,7.27-5.049-1.445,24-9.16a1.224,1.224,0,0,1,.427-.094c.052,0,.142.006.176.048a.794.794,0,0,1,.031.587Z" fill="#c8c8c8"/>
  </g>
</svg>
