<svg xmlns="http://www.w3.org/2000/svg" width="114.62" height="87.935" viewBox="0 0 114.62 87.935">
  <g id="videoproduct" transform="translate(0 -59.6)">
    <g id="Group_40" data-name="Group 40" transform="translate(87.733 95.967)">
      <path id="Path_199" data-name="Path 199" d="M0,0H40.552V9.012H0Z" transform="translate(9.012) rotate(90)" fill="#2b3890"/>
    </g>
    <g id="Group_41" data-name="Group 41" transform="translate(96.744 86.955)">
      <path id="Path_200" data-name="Path 200" d="M433.789,238.58V184.511l15.77-2.253v58.575Z" transform="translate(-433.789 -182.258)" fill="#3d4fc3"/>
    </g>
    <g id="Group_42" data-name="Group 42" transform="translate(108.009 86.955)">
      <path id="Path_201" data-name="Path 201" d="M484.3,182.9v57.287l4.506.644V182.258Z" transform="translate(-484.297 -182.258)" fill="#3342aa"/>
    </g>
    <g id="Group_43" data-name="Group 43" transform="translate(15.641 86.956)">
      <path id="Path_202" data-name="Path 202" d="M137.717,240.834H74.636a4.506,4.506,0,0,1-4.506-4.506V186.765a4.506,4.506,0,0,1,4.506-4.506h63.081a4.506,4.506,0,0,1,4.506,4.506v49.564A4.506,4.506,0,0,1,137.717,240.834Z" transform="translate(-70.13 -182.259)" fill="#78d0b1"/>
    </g>
    <g id="Group_44" data-name="Group 44" transform="translate(78.045 86.955)">
      <path id="Path_203" data-name="Path 203" d="M355.127,182.258h-5.182a4.506,4.506,0,0,1,4.506,4.506v49.564a4.506,4.506,0,0,1-4.506,4.506h5.182a4.506,4.506,0,0,0,4.506-4.506V186.764A4.506,4.506,0,0,0,355.127,182.258Z" transform="translate(-349.945 -182.258)" fill="#66b49d"/>
    </g>
    <g id="Group_45" data-name="Group 45" transform="translate(1.673 91.461)">
      <path id="Path_204" data-name="Path 204" d="M7.5,202.462H21.468v16.221H7.5Z" transform="translate(-7.5 -202.462)" fill="#3d4fc3"/>
    </g>
    <g id="Group_46" data-name="Group 46" transform="translate(24.652 79.746)">
      <path id="Path_205" data-name="Path 205" d="M110.537,157.142l2.253-7.209h16.221l2.253,7.209Z" transform="translate(-110.537 -149.933)" fill="#3d4fc3"/>
    </g>
    <g id="Group_47" data-name="Group 47" transform="translate(39.071 98.22)">
      <path id="Path_206" data-name="Path 206" d="M0,0H36.046V39.651H0Z" transform="translate(39.651 0) rotate(90)" fill="#dd5790"/>
    </g>
    <g id="Group_48" data-name="Group 48" transform="translate(73.314 98.22)">
      <path id="Path_207" data-name="Path 207" d="M0,0H36.046V5.407H0Z" transform="translate(5.407 0) rotate(90)" fill="#da387d"/>
    </g>
    <g id="Group_49" data-name="Group 49" transform="translate(48.533 61.273)">
      <path id="Path_208" data-name="Path 208" d="M217.614,73.859a6.759,6.759,0,0,1,6.759-6.759H253.66a6.759,6.759,0,0,1,0,13.517H224.373A6.759,6.759,0,0,1,217.614,73.859Z" transform="translate(-217.614 -67.1)" fill="#3d4fc3"/>
    </g>
    <g id="Group_50" data-name="Group 50" transform="translate(48.774 61.737)">
      <path id="Path_209" data-name="Path 209" d="M256.962,69.184a6.758,6.758,0,0,1-6.518,8.547H221.157a6.739,6.739,0,0,1-2.463-.465,6.76,6.76,0,0,0,6.518,4.97H254.5a6.758,6.758,0,0,0,2.463-13.052Z" transform="translate(-218.694 -69.184)" fill="#3342aa"/>
    </g>
    <g id="Group_51" data-name="Group 51" transform="translate(24.652 98.22)">
      <path id="Path_210" data-name="Path 210" d="M0,0H36.046V7.209H0Z" transform="translate(7.209 0) rotate(90)" fill="#3d4fc3"/>
    </g>
    <g id="Group_52" data-name="Group 52" transform="translate(49.884 105.752)">
      <path id="Path_211" data-name="Path 211" d="M223.675,285.889V268.174a1.63,1.63,0,0,1,2.469-1.4l14.763,8.858a1.63,1.63,0,0,1,0,2.8l-14.763,8.858A1.63,1.63,0,0,1,223.675,285.889Z" transform="translate(-223.675 -266.541)" fill="#e4f6ff"/>
    </g>
    <g id="Group_53" data-name="Group 53" transform="translate(0 59.6)">
      <path id="Path_212" data-name="Path 212" d="M112.941,93.854a1.679,1.679,0,0,0,1.679-1.679V87.059A1.679,1.679,0,0,0,112.7,85.4l-15.83,2.261a1.679,1.679,0,0,0-1.441,1.662v5.105H89.744V91.582a6.208,6.208,0,0,0-6.2-6.2H46.785l-1.893-6.059a1.679,1.679,0,0,0-1.6-1.178h-5.7l1.973-5.129a5.136,5.136,0,0,1,4.765-3.273h2.875a8.477,8.477,0,0,0,8.3,6.784H84.9a8.463,8.463,0,0,0,0-16.927H55.5a8.477,8.477,0,0,0-8.3,6.784H44.33a8.514,8.514,0,0,0-7.9,5.425l-2.436,6.334H27.007a1.679,1.679,0,0,0-1.6,1.178L23.511,85.38H20.222A6.211,6.211,0,0,0,14.254,89.9H3.358V87.285a1.679,1.679,0,1,0-3.358,0v24.876a1.679,1.679,0,0,0,3.358,0v-2.618H14.021v31.79a6.208,6.208,0,0,0,6.2,6.2h11.76a1.679,1.679,0,0,0,0-3.358H20.222a2.846,2.846,0,0,1-2.843-2.843V91.582a2.846,2.846,0,0,1,2.843-2.843H83.542a2.846,2.846,0,0,1,2.843,2.843v49.752a2.846,2.846,0,0,1-2.843,2.843h-43.7a1.679,1.679,0,0,0,0,3.358h43.7a6.208,6.208,0,0,0,6.2-6.2v-2.844h5.688v5.106a1.679,1.679,0,0,0,1.441,1.662l15.83,2.261a1.68,1.68,0,0,0,1.338-.394,1.679,1.679,0,0,0,.579-1.268V100.033a1.679,1.679,0,0,0-3.358,0V143.92L98.79,142.138V90.777L111.262,89v3.18A1.679,1.679,0,0,0,112.941,93.854ZM55.5,62.958H84.9a5.105,5.105,0,0,1,0,10.211H55.5a5.105,5.105,0,1,1,0-10.211ZM3.358,106.185V93.261H14.021v12.924ZM28.241,81.5H42.055l1.212,3.879H27.029Zm61.5,53.63V97.784h5.688v37.348Z" transform="translate(0 -59.6)" fill="#39519d"/>
      <path id="Path_213" data-name="Path 213" d="M209.17,264.809a1.679,1.679,0,0,0,1.679-1.679V226.949a1.679,1.679,0,0,0-1.679-1.679h-9.358a1.679,1.679,0,0,0,0,3.358h7.679v32.823H171.048V228.628h20.907a1.679,1.679,0,0,0,0-3.358H169.369a1.679,1.679,0,0,0-1.679,1.679V263.13a1.679,1.679,0,0,0,1.679,1.679Z" transform="translate(-130.15 -188.182)" fill="#39519d"/>
      <path id="Path_214" data-name="Path 214" d="M111.952,225.266h-7.236a1.679,1.679,0,0,0-1.679,1.679v36.183a1.679,1.679,0,0,0,1.679,1.679h7.236a1.679,1.679,0,0,0,1.679-1.679V226.945a1.679,1.679,0,0,0-1.679-1.679Zm-1.679,36.183h-3.878V228.624h3.878Z" transform="translate(-79.97 -188.179)" fill="#39519d"/>
      <path id="Path_215" data-name="Path 215" d="M217.857,259.463a3.278,3.278,0,0,0-1.682,2.885v17.783a3.308,3.308,0,0,0,5.021,2.843l14.819-8.891a3.315,3.315,0,0,0,0-5.686L221.2,259.505a3.278,3.278,0,0,0-3.339-.042Zm1.676,20.592V262.424l14.693,8.816Z" transform="translate(-167.781 -214.382)" fill="#39519d"/>
    </g>
  </g>
</svg>
