<svg xmlns="http://www.w3.org/2000/svg" xmlns:xlink="http://www.w3.org/1999/xlink" width="31.864" height="24" viewBox="0 0 31.864 24">
  <defs>
    <clipPath id="clip-path">
      <rect id="Rectangle_72" data-name="Rectangle 72" width="31.864" height="24" transform="translate(153)" fill="#fff"/>
    </clipPath>
  </defs>
  <g id="youtube" transform="translate(-153)" clip-path="url(#clip-path)">
    <path id="Path_71" data-name="Path 71" d="M173.837,10.6,166.8,6.856a1.313,1.313,0,0,0-1.28.021,1.239,1.239,0,0,0-.634,1.082v7.424a1.241,1.241,0,0,0,.629,1.079,1.317,1.317,0,0,0,1.277.028l7.038-3.68a1.238,1.238,0,0,0,.5-.455,1.241,1.241,0,0,0-.487-1.755Zm-7.086,3.849V8.9l5.261,2.8Z" fill="#c8c8c8"/>
    <path id="Path_72" data-name="Path 72" d="M184.63,5.664V5.65a7.239,7.239,0,0,0-1.4-3.677,5.2,5.2,0,0,0-3.436-1.6l-.158-.018-.056-.006C175.364.042,169,0,168.938,0h-.011c-.063,0-6.425.042-10.676.346L158.2.353l-.15.018a5.069,5.069,0,0,0-3.415,1.651,7.578,7.578,0,0,0-1.393,3.611v.033c-.012.106-.237,2.63-.237,5.169V13.2c0,2.536.225,5.063.235,5.17v.016a7.138,7.138,0,0,0,1.4,3.632,5.306,5.306,0,0,0,3.549,1.579c.13.015.241.028.318.04l.073.01c2.43.231,10.055.344,10.382.348h.019c.064,0,6.425-.042,10.641-.346l.055-.006.179-.02a4.953,4.953,0,0,0,3.385-1.61,7.578,7.578,0,0,0,1.393-3.611v-.033c.009-.107.235-2.633.235-5.169v-2.37c0-2.536-.226-5.062-.235-5.169ZM183,13.2c0,2.346-.206,4.765-.226,4.987a5.874,5.874,0,0,1-.915,2.572,3.08,3.08,0,0,1-2.2,1.021l-.2.023c-4.074.293-10.2.335-10.477.339-.316,0-7.831-.119-10.189-.335-.12-.019-.251-.034-.388-.05a3.5,3.5,0,0,1-2.388-.992l-.019-.023a5.332,5.332,0,0,1-.9-2.547c-.015-.168-.227-2.614-.227-4.995v-2.37c0-2.346.206-4.76.226-4.986a5.756,5.756,0,0,1,.914-2.574,3.229,3.229,0,0,1,2.25-1.059l.153-.018c4.134-.294,10.3-.335,10.52-.34s6.385.045,10.482.34l.168.019a3.352,3.352,0,0,1,2.284,1.031l.007.008a5.419,5.419,0,0,1,.9,2.584c.014.158.226,2.61.226,5Z" fill="#c8c8c8"/>
  </g>
</svg>
