<svg xmlns="http://www.w3.org/2000/svg" width="115" height="81.914" viewBox="0 0 115 81.914">
  <g id="youtubelogo" transform="translate(0 0)">
    <path id="Path_216" data-name="Path 216" d="M223.291,114.466l-13.9-8.588V140.23l13.9-8.588,13.9-8.588Zm0,0" transform="translate(-162.359 -82.097)" fill="#fff" fill-rule="evenodd"/>
    <path id="Path_217" data-name="Path 217" d="M54.764,31.537l13.9,8.588,13.9,8.588L68.665,57.3l-13.9,8.588V31.537Zm-43.928,36.7c1.177,11.258,5.7,15.749,14.845,17.176,17.234,2.687,61.869,2.687,79.1,0,9.147-1.427,13.667-5.917,14.844-17.176a220.937,220.937,0,0,0,0-39.04c-1.177-11.258-5.7-15.749-14.844-17.176-17.235-2.687-61.869-2.687-79.1,0-9.148,1.427-13.668,5.918-14.845,17.176a221.1,221.1,0,0,0,0,39.04Zm0,0" transform="translate(-7.733 -7.755)" fill="red" fill-rule="evenodd"/>
    <path id="Path_218" data-name="Path 218" d="M74.087,81.946c-5.277.179-10.857.269-16.587.269-16.564,0-31.22-.743-39.206-1.988C9.762,78.9,6.372,74.922,5.337,65.037a219.683,219.683,0,0,1,0-38.572c1.034-9.885,4.425-13.859,12.957-15.189,1.385-.217,3.013-.422,4.839-.612A2.246,2.246,0,1,0,22.67,6.2c-1.9.2-3.607.413-5.068.64-5.322.83-9.053,2.617-11.739,5.624C3.1,15.552,1.512,19.854.869,26a225.045,225.045,0,0,0,0,39.507C1.512,71.65,3.1,75.951,5.863,79.043,8.549,82.05,12.28,83.837,17.6,84.666c8.2,1.279,23.116,2.043,39.9,2.043,5.78,0,11.412-.091,16.739-.272a2.246,2.246,0,0,0-.152-4.49Zm0,0" transform="translate(0 -4.795)" fill="#39519d"/>
    <path id="Path_219" data-name="Path 219" d="M247.355,21.2c-.643-6.143-2.229-10.445-4.993-13.538-2.687-3.007-6.418-4.794-11.74-5.623C222.42.763,207.5,0,190.723,0c-5.78,0-11.411.092-16.738.272a2.246,2.246,0,1,0,.152,4.49c5.276-.179,10.857-.269,16.587-.269,16.562,0,31.219.743,39.206,1.988,8.532,1.331,11.923,5.306,12.956,15.19a219.516,219.516,0,0,1,0,38.572c-1.034,9.885-4.425,13.859-12.956,15.19-1.385.216-3.014.421-4.84.611a2.246,2.246,0,0,0,.229,4.481c.078,0,.156,0,.235-.012,1.9-.2,3.606-.412,5.067-.64,5.322-.83,9.053-2.616,11.74-5.623,2.764-3.093,4.35-7.395,4.993-13.538a225.056,225.056,0,0,0,0-39.508Zm0,0" transform="translate(-133.223)" fill="#39519d"/>
    <path id="Path_220" data-name="Path 220" d="M230.619,113.386l-27.8-17.177a2.246,2.246,0,0,0-3.427,1.911v34.352a2.247,2.247,0,0,0,3.427,1.911l27.8-17.176a2.246,2.246,0,0,0,0-3.822Zm-26.735,15.059v-26.3l21.28,13.148Zm0,0" transform="translate(-154.606 -74.34)" fill="#39519d"/>
    <path id="Path_221" data-name="Path 221" d="M134.094,7.525c.05,0,.1,0,.152,0a2.247,2.247,0,0,0-.3-4.483h0a2.246,2.246,0,0,0,.149,4.488Zm0,0" transform="translate(-102.234 -2.351)" fill="#39519d"/>
    <path id="Path_222" data-name="Path 222" d="M362.243,341.667a2.246,2.246,0,0,0,.147,4.487c.051,0,.1,0,.152,0h0a2.246,2.246,0,0,0-.3-4.483Zm0,0" transform="translate(-279.253 -264.921)" fill="#39519d"/>
  </g>
</svg>
